<?xml version="1.0" encoding="UTF-8"?>
<!DOCTYPE svg PUBLIC "-//W3C//DTD SVG 1.1//EN" "http://www.w3.org/Graphics/SVG/1.1/DTD/svg11.dtd">
<!-- Creator: CorelDRAW -->
<svg xmlns="http://www.w3.org/2000/svg" xml:space="preserve" width="6.82666in" height="6.82666in" style="shape-rendering:geometricPrecision; text-rendering:geometricPrecision; image-rendering:optimizeQuality; fill-rule:evenodd; clip-rule:evenodd"
viewBox="0 0 6.82666 6.82666"
 xmlns:xlink="http://www.w3.org/1999/xlink">
 <defs>
  <style type="text/css">
   <![CDATA[
    .fil1 {fill:#FEFEFE;fill-rule:nonzero}
    .fil0 {fill:url(#id0)}
   ]]>
  </style>
  <linearGradient id="id0" gradientUnits="userSpaceOnUse" x1="1.68784" y1="0.424697" x2="5.13882" y2="6.40196">
   <stop offset="0" style="stop-color:#444FF5"/>
   <stop offset="0.490196" style="stop-color:#21BFDB"/>
   <stop offset="1" style="stop-color:#1DABB6"/>
  </linearGradient>
 </defs>
 <g id="Layer_x0020_1">
  <metadata id="CorelCorpID_0Corel-Layer"/>
  <path class="fil0" d="M6.36936 1.70667c0.942567,1.63257 0.383209,3.72013 -1.24937,4.6627 -1.63257,0.942567 -3.72013,0.383209 -4.6627,-1.24937 -0.942567,-1.63257 -0.383209,-3.72013 1.24937,-4.6627 1.63257,-0.942567 3.72013,-0.383209 4.6627,1.24937z"/>
  <g id="_218759376">
   <path id="_218759424" class="fil1" d="M3.41333 1.08c0.181701,0 0.346209,0.0736535 0.465287,0.192732 0.119079,0.119079 0.192736,0.283591 0.192736,0.465287 0,0.181701 -0.0736575,0.346209 -0.192736,0.465287 -0.119079,0.119075 -0.283587,0.192736 -0.465287,0.192736 -0.181701,0 -0.346209,-0.0736614 -0.465283,-0.192736 -0.119079,-0.119079 -0.19274,-0.283587 -0.19274,-0.465287 0,-0.181697 0.0736614,-0.346209 0.19274,-0.465287 0.119075,-0.119079 0.283583,-0.192732 0.465283,-0.192732zm0.362177 0.295843c-0.0926811,-0.0926811 -0.220736,-0.150012 -0.362177,-0.150012 -0.141441,0 -0.269492,0.0573307 -0.362177,0.150012 -0.0926811,0.0926811 -0.150012,0.220736 -0.150012,0.362177 0,0.141441 0.0573307,0.269496 0.150012,0.362177 0.092685,0.0926811 0.220736,0.150012 0.362177,0.150012 0.141441,0 0.269496,-0.0573307 0.362177,-0.150012 0.092685,-0.0926811 0.150012,-0.220736 0.150012,-0.362177 0,-0.141441 -0.0573268,-0.269496 -0.150012,-0.362177z"/>
   <path id="_218759400" class="fil1" d="M3.41333 5.74666c-0.181701,0 -0.346209,-0.0736535 -0.465283,-0.192732 -0.119079,-0.119079 -0.19274,-0.283591 -0.19274,-0.465287 0,-0.181701 0.0736614,-0.346209 0.19274,-0.465287 0.119075,-0.119075 0.283583,-0.192736 0.465283,-0.192736 0.181701,0 0.346209,0.0736614 0.465287,0.192736 0.119079,0.119079 0.192736,0.283587 0.192736,0.465287 0,0.181697 -0.0736575,0.346209 -0.192736,0.465287 -0.119079,0.119079 -0.283587,0.192732 -0.465287,0.192732zm-0.362177 -0.295843c0.092685,0.0926811 0.220736,0.150012 0.362177,0.150012 0.141441,0 0.269496,-0.0573307 0.362177,-0.150012 0.092685,-0.0926811 0.150012,-0.220736 0.150012,-0.362177 0,-0.141441 -0.0573268,-0.269496 -0.150012,-0.362177 -0.0926811,-0.0926811 -0.220736,-0.150012 -0.362177,-0.150012 -0.141441,0 -0.269492,0.0573307 -0.362177,0.150012 -0.0926811,0.0926811 -0.150012,0.220736 -0.150012,0.362177 0,0.141441 0.0573307,0.269496 0.150012,0.362177z"/>
   <polygon id="_218759472" class="fil1" points="3.48625,2.32313 3.48625,4.50449 3.34041,4.50449 3.34041,2.32313 "/>
   <path id="_218759904" class="fil1" d="M5.74666 3.41333c0,0.181701 -0.0736535,0.346209 -0.192732,0.465287 -0.119079,0.119079 -0.283591,0.192736 -0.465287,0.192736 -0.181701,0 -0.346209,-0.0736575 -0.465287,-0.192736 -0.119075,-0.119079 -0.192736,-0.283587 -0.192736,-0.465287 0,-0.181701 0.0736614,-0.346209 0.192736,-0.465287 0.119079,-0.119079 0.283587,-0.192736 0.465287,-0.192736 0.181697,0 0.346209,0.0736575 0.465287,0.192736 0.119079,0.119079 0.192732,0.283587 0.192732,0.465287zm-0.295843 0.362177c0.0926811,-0.0926811 0.150012,-0.220736 0.150012,-0.362177 0,-0.141441 -0.0573307,-0.269496 -0.150012,-0.362177 -0.0926811,-0.092685 -0.220736,-0.150012 -0.362177,-0.150012 -0.141441,0 -0.269496,0.0573268 -0.362177,0.150012 -0.0926811,0.0926811 -0.150012,0.220736 -0.150012,0.362177 0,0.141441 0.0573307,0.269496 0.150012,0.362177 0.0926811,0.092685 0.220736,0.150012 0.362177,0.150012 0.141441,0 0.269496,-0.0573268 0.362177,-0.150012z"/>
   <path id="_218759448" class="fil1" d="M1.08 3.41333c0,-0.181701 0.0736575,-0.346209 0.192736,-0.465287 0.119079,-0.119079 0.283587,-0.192736 0.465283,-0.192736 0.181701,0 0.346213,0.0736575 0.465291,0.192736 0.119075,0.119079 0.192732,0.283587 0.192732,0.465287 0,0.181701 -0.0736575,0.346209 -0.192732,0.465287 -0.119079,0.119079 -0.283591,0.192736 -0.465291,0.192736 -0.181697,0 -0.346205,-0.0736575 -0.465283,-0.192736 -0.119079,-0.119079 -0.192736,-0.283587 -0.192736,-0.465287zm0.295846 -0.362177c-0.0926811,0.0926811 -0.150016,0.220736 -0.150016,0.362177 0,0.141441 0.0573346,0.269496 0.150016,0.362177 0.0926811,0.092685 0.220732,0.150012 0.362173,0.150012 0.141441,0 0.2695,-0.0573268 0.362181,-0.150012 0.0926811,-0.0926811 0.150008,-0.220736 0.150008,-0.362177 0,-0.141441 -0.0573268,-0.269496 -0.150008,-0.362177 -0.0926811,-0.092685 -0.22074,-0.150012 -0.362181,-0.150012 -0.141441,0 -0.269492,0.0573268 -0.362173,0.150012z"/>
   <polygon id="_218759280" class="fil1" points="4.50354,3.48625 2.32217,3.48625 2.32217,3.34041 4.50354,3.34041 "/>
  </g>
 </g>
</svg>
